<svg width="48" height="48" viewBox="0 0 48 48" fill="none" xmlns="http://www.w3.org/2000/svg">
<path d="M30.587 3.99794H10C8.89543 3.99794 8 4.89337 8 5.99794V42.0016C8 43.1061 8.89543 44.0016 10 44.0016H37.9983C39.1028 44.0016 39.9983 43.1061 39.9983 42.0016V13.2097L30.587 3.99794Z" fill="#3477EB"/>
<path d="M30.5889 11.3654V3.99599L40.0001 13.2078H32.4312C31.4137 13.2078 30.5889 12.3829 30.5889 11.3654Z" fill="#8ABDFF"/>
<path d="M13.9976 17.4998C13.9976 16.6713 14.6691 15.9998 15.4976 15.9998C16.326 15.9998 16.9976 16.6713 16.9976 17.4998C16.9976 18.3282 16.326 18.9998 15.4976 18.9998C14.6691 18.9998 13.9976 18.3282 13.9976 17.4998Z" fill="white"/>
<path d="M18.9976 17.4998C18.9976 16.6713 19.6691 15.9998 20.4976 15.9998H32.4976C33.326 15.9998 33.9976 16.6713 33.9976 17.4998C33.9976 18.3282 33.326 18.9998 32.4976 18.9998H20.4976C19.6691 18.9998 18.9976 18.3282 18.9976 17.4998Z" fill="white"/>
<path d="M13.9976 24.4998C13.9976 23.6713 14.6691 22.9998 15.4976 22.9998C16.326 22.9998 16.9976 23.6713 16.9976 24.4998C16.9976 25.3282 16.326 25.9998 15.4976 25.9998C14.6691 25.9998 13.9976 25.3282 13.9976 24.4998Z" fill="white"/>
<path d="M18.9976 24.4998C18.9976 23.6713 19.6691 22.9998 20.4976 22.9998H32.5024C33.3309 22.9998 34.0024 23.6713 34.0024 24.4998C34.0024 25.3282 33.3309 25.9998 32.5024 25.9998H20.4976C19.6691 25.9998 18.9976 25.3282 18.9976 24.4998Z" fill="white"/>
<path d="M13.9976 31.4998C13.9976 30.6713 14.6691 29.9998 15.4976 29.9998C16.326 29.9998 16.9976 30.6713 16.9976 31.4998C16.9976 32.3282 16.326 32.9998 15.4976 32.9998C14.6691 32.9998 13.9976 32.3282 13.9976 31.4998Z" fill="white"/>
<path d="M18.9976 31.4998C18.9976 30.6713 19.6691 29.9998 20.4976 29.9998H32.4976C33.326 29.9998 33.9976 30.6713 33.9976 31.4998C33.9976 32.3282 33.326 32.9998 32.4976 32.9998H20.4976C19.6691 32.9998 18.9976 32.3282 18.9976 31.4998Z" fill="white"/>
</svg>
