<svg width="12" height="14" viewBox="0 0 12 14" fill="none" xmlns="http://www.w3.org/2000/svg">
<path fill-rule="evenodd" clip-rule="evenodd" d="M0.666667 0.993469C0.298477 0.993469 0 1.29195 0 1.66014V10.3268C0 10.695 0.298477 10.9935 0.666667 10.9935H11.3333C11.7015 10.9935 12 10.695 12 10.3268V1.66014C12 1.29195 11.7015 0.993469 11.3333 0.993469H0.666667ZM1.33333 9.66014V2.3268H10.6667V9.66014H1.33333ZM2.66667 11.6732C2.29848 11.6732 2 11.9716 2 12.3398C2 12.708 2.29848 13.0065 2.66667 13.0065L9.41475 13.0065C9.78294 13.0065 10.0814 12.708 10.0814 12.3398C10.0814 11.9716 9.78294 11.6732 9.41475 11.6732L2.66667 11.6732ZM3.48113 5.51053C3.74251 5.25122 4.16462 5.25291 4.42393 5.51429L5.33236 6.43L5.33236 3.93041C5.33236 3.56222 5.63083 3.26374 5.99902 3.26374C6.36721 3.26374 6.66569 3.56222 6.66569 3.93041L6.66569 6.44819L7.59432 5.52695C7.8557 5.26764 8.27781 5.26933 8.53712 5.53071C8.79643 5.7921 8.79474 6.21421 8.53335 6.47351L6.46855 8.5219C6.20716 8.78121 5.78506 8.77952 5.52575 8.51814L3.47736 6.45333C3.21805 6.19194 3.21974 5.76984 3.48113 5.51053Z" fill="#464A53"/>
</svg>
