<svg width="165" height="44" viewBox="0 0 165 44" fill="none" xmlns="http://www.w3.org/2000/svg">
<path fill-rule="evenodd" clip-rule="evenodd" d="M8.15527 15.1087C8.15527 12.7773 9.44021 10.6358 11.4973 9.53868L24.1226 2.80517C25.9793 1.81494 28.2073 1.81494 30.0639 2.80517L42.6893 9.53868C44.7463 10.6358 46.0313 12.7773 46.0313 15.1087V28.8913C46.0313 31.2227 44.7463 33.3642 42.6893 34.4613L30.0639 41.1948C28.2073 42.1851 25.9793 42.1851 24.1226 41.1948L11.4973 34.4613C9.44021 33.3642 8.15527 31.2227 8.15527 28.8913V15.1087Z" fill="url(#paint0_linear_2111_40809)"/>
<path d="M32.5641 4.138L17.122 12.5768C15.0964 13.6837 13.8365 15.808 13.8365 18.1163V24.0295C13.8365 26.2489 15.0659 28.2856 17.0297 29.3196C19.0203 30.3678 21.4117 28.9243 21.4117 26.6746V22.1787C21.4117 19.848 22.696 17.7069 24.7522 16.6095L40.3456 8.28756L42.6584 9.52175L27.2206 17.9642C25.1959 19.0714 23.9368 21.1951 23.9368 23.5027V27.6557C23.9368 31.4141 19.9369 33.8215 16.6158 32.0621C13.3523 30.3332 11.3114 26.9424 11.3114 23.2493V16.7921C11.3114 14.4608 12.5964 12.3192 14.6534 11.2221L30.2494 2.90424L32.5641 4.138Z" fill="white"/>
<path d="M59.7812 11.311V32.2186H70.3134V28.7079H63.8562V11.311H59.7812Z" fill="#2951F2"/>
<path d="M82.9702 20.4013C81.685 18.3952 79.6475 18.2071 78.6131 18.2071C74.6009 18.2071 71.8738 21.4043 71.8738 25.4166C71.8738 29.3975 74.6322 32.6574 78.8012 32.6574C79.7729 32.6574 81.591 32.438 82.9702 30.4632V32.2186H86.7943V18.6459H82.9702V20.4013ZM79.5848 21.5924C81.779 21.5924 83.3463 23.2537 83.3463 25.4166C83.3463 27.5794 81.779 29.2721 79.5848 29.2721C77.3906 29.2721 75.8234 27.5794 75.8234 25.4166C75.8234 23.2537 77.3906 21.5924 79.5848 21.5924Z" fill="#2951F2"/>
<path d="M94.2644 11.311H90.4402V32.2186H94.2644V30.4632C95.7376 32.5007 97.7124 32.6574 98.5901 32.6574C102.602 32.6574 105.361 29.5542 105.361 25.4166C105.361 21.3103 102.696 18.2071 98.6841 18.2071C97.5243 18.2071 95.6123 18.5205 94.2644 20.4013V11.311ZM97.6497 21.5924C99.8439 21.5924 101.411 23.2537 101.411 25.4166C101.411 27.5794 99.8439 29.2721 97.6497 29.2721C95.4555 29.2721 93.8882 27.5794 93.8882 25.4166C93.8882 23.2537 95.4555 21.5924 97.6497 21.5924Z" fill="#2951F2"/>
<path d="M118.128 27.8615C117.501 28.9586 116.404 29.6482 114.962 29.6482C113.489 29.6482 112.643 28.9273 112.235 28.3631C111.796 27.7675 111.577 26.8898 111.577 26.0748H121.733V25.7614C121.733 24.2881 121.545 22.1566 120.103 20.4326C119.163 19.3042 117.564 18.2071 114.806 18.2071C113.176 18.2071 111.295 18.5519 109.696 20.1192C108.725 21.0909 107.627 22.7522 107.627 25.4479C107.627 27.5794 108.254 29.3348 109.759 30.7453C111.107 32.0305 112.768 32.6574 114.962 32.6574C119.696 32.6574 121.231 29.4288 121.639 28.4258L118.128 27.8615ZM111.702 23.6299C112.016 21.8118 113.489 20.9028 114.9 20.9028C116.31 20.9028 117.815 21.7805 118.128 23.6299H111.702Z" fill="#2951F2"/>
<path d="M124.694 11.311V32.2186H128.518V11.311H124.694Z" fill="#2951F2"/>
<path d="M140.043 11.311V24.1001C140.043 26.0748 140.357 28.081 141.611 29.6796C143.115 31.6544 145.748 32.6888 148.444 32.6888C151.14 32.6888 153.773 31.6544 155.277 29.6796C156.531 28.081 156.845 26.0748 156.845 24.1001V11.311H152.77V24.4449C152.77 26.0435 152.237 27.0152 151.767 27.5481C151.171 28.269 150.074 28.99 148.444 28.99C146.814 28.99 145.717 28.269 145.121 27.5481C144.651 27.0152 144.118 26.0435 144.118 24.4449V11.311H140.043Z" fill="#2951F2"/>
<defs>
<linearGradient id="paint0_linear_2111_40809" x1="13.1786" y1="5.87332" x2="41.7598" y2="38.4385" gradientUnits="userSpaceOnUse">
<stop stop-color="#3A7CFF"/>
<stop offset="0.510353" stop-color="#0D3CDE"/>
<stop offset="1" stop-color="#5E36FD"/>
</linearGradient>
</defs>
</svg>
