<svg width="113" height="88" viewBox="0 0 113 88" fill="none" xmlns="http://www.w3.org/2000/svg">
<path d="M90.7703 12.7008H0.800049V78.3933H90.7698V12.7008H90.7703Z" fill="#EFF2F4"/>
<path d="M98.3866 0.800049H7.46436V66.9686H98.3866V0.800049Z" fill="#D6DAE1"/>
<path d="M17.8085 11.62C19.9116 11.62 21.6168 9.91453 21.6168 7.8102C21.6168 5.70586 19.9116 4 17.8085 4C17.3084 4 16.8131 4.09855 16.3511 4.29004C15.889 4.48153 15.4691 4.76219 15.1155 5.116C14.7619 5.46982 14.4814 5.88986 14.29 6.35213C14.0987 6.8144 14.0002 7.30985 14.0002 7.8102C14.0002 8.82062 14.4015 9.78966 15.1157 10.5041C15.8298 11.2186 16.7985 11.62 17.8085 11.62Z" fill="white"/>
<path d="M8.4165 15.557H97.9107M28.0279 8.4165H56.9912" stroke="white" stroke-width="2" stroke-miterlimit="10"/>
<path d="M32.0381 48.111L20.7861 51.2847L19.3652 46.1628L26.8749 29.5035L32.2581 27.9852L36.0807 41.7609L38.8712 40.9738L40.2114 45.8051L37.4214 46.5922L38.5838 50.7818L33.2005 52.3001L32.0381 48.111ZM30.6974 43.2792L28.7415 36.2308L24.7532 44.9564L30.6974 43.2792ZM45.4738 43.1844C45.1334 38.7737 45.6801 35.6252 47.1139 33.7401C48.5585 31.8537 50.8925 30.7839 54.1157 30.5311C55.6647 30.4098 56.9514 30.505 57.9758 30.8174C58.9993 31.1193 59.8493 31.557 60.5255 32.1304C61.2003 32.6929 61.7427 33.3033 62.1513 33.9616C62.5699 34.6081 62.9237 35.3764 63.2137 36.2665C63.7763 37.9637 64.1301 39.7513 64.2751 41.6295C64.6 45.84 64.1314 48.9767 62.8693 51.0398C61.6072 53.1032 59.2491 54.2701 55.7955 54.5411C53.859 54.6929 52.2706 54.5046 51.0292 53.9755C49.7883 53.4465 48.7389 52.6103 47.8824 51.4674C47.2615 50.656 46.7372 49.5245 46.3092 48.0714C45.8906 46.6074 45.6123 44.9785 45.4738 43.1844ZM51.8176 42.7027C52.0454 45.6572 52.4579 47.6581 53.0547 48.7048C53.6609 49.7402 54.4561 50.2192 55.4399 50.1418C56.0889 50.0909 56.6313 49.8203 57.0671 49.3295C57.5128 48.8275 57.8071 48.0718 57.9503 47.0625C58.104 46.0527 58.1001 44.4974 57.9378 42.3978C57.7001 39.3163 57.2789 37.2684 56.674 36.2543C56.079 35.2289 55.2635 34.7569 54.227 34.8378C53.1703 34.9209 52.448 35.5243 52.0609 36.6481C51.673 37.7614 51.5919 39.7796 51.8176 42.7027ZM80.2985 45.6759L68.7065 44.2015L69.3671 38.9243L82.6971 26.506L88.2431 27.2112L86.4675 41.4037L89.3421 41.7691L88.7194 46.7466L85.8449 46.3812L85.3046 50.6974L79.7587 49.9917L80.2985 45.6759ZM80.9216 40.698L81.8298 33.4365L74.7974 39.9193L80.9216 40.698Z" fill="white"/>
<path d="M80.7456 5.46615L96.183 19.8413L96.4826 3.65619L78.8694 3.65619L80.7456 5.46615Z" fill="#0D53DE"/>
<path d="M112.24 57.9635C111.897 54.1011 108.808 47.6001 101.238 47.6001C94.8048 47.6001 90.6124 53.0497 89.5399 54.6269C88.4678 53.0497 84.3179 47.6001 77.8523 47.6001C70.2822 47.6001 67.1297 54.1119 66.8403 57.9847C66.5508 61.8575 67.6658 64.9257 75.4183 72.811C83.1709 80.6962 89.5399 87.4655 89.5399 87.4655C89.5399 87.4655 95.9734 80.6637 103.715 72.7893C111.457 64.9149 112.583 61.8255 112.24 57.9635Z" fill="#0D53DE"/>
<path d="M90.3746 56.9807L85.5608 62.888L90.7198 67.6643L86.2218 73.2995L90.6608 78.0859" stroke="white" stroke-width="2.5" stroke-miterlimit="10"/>
<path d="M5.47485 50.1095L4.9974 71.2733L41.9551 70.1568" stroke="black" stroke-width="2"/>
<path d="M91.2461 26.03L91.2461 6.51268L70.7767 6.51268" stroke="black" stroke-width="2"/>
</svg>
