<svg width="24" height="24" viewBox="0 0 24 24" fill="none" xmlns="http://www.w3.org/2000/svg">
<mask id="mask0_842_8143" style="mask-type:luminance" maskUnits="userSpaceOnUse" x="2" y="3" width="20" height="19">
<path d="M14.2921 3C18.2981 3 21.5532 6.12286 21.6179 9.99905L21.6189 10.1167V14.3445C21.6189 18.2357 18.4038 21.3974 14.4133 21.4603L14.2921 21.4612H2.61279V11.0174C2.61279 10.2002 3.29484 9.53772 4.13618 9.53772C4.96373 9.53772 5.63717 10.1787 5.65902 10.9774L5.65957 11.0174V18.5018H14.2921C16.6322 18.5018 18.5337 16.6776 18.5715 14.4132L18.5721 14.3445V10.1167C18.5721 7.84368 16.694 5.9967 14.3629 5.95999L14.2921 5.95943H10.11C9.26866 5.95943 8.58662 5.29694 8.58662 4.47972C8.58662 3.67589 9.24648 3.02176 10.0688 3.00053L10.11 3H14.2921Z" fill="white"/>
</mask>
<g mask="url(#mask0_842_8143)">
<path d="M14.2923 3C18.2983 3 21.5534 6.12286 21.6181 9.99905L21.6191 10.1167V14.3445C21.6191 17.7388 19.1726 20.5781 15.8991 21.2896C16.0445 21.2578 16.1883 21.2219 16.3303 21.182C17.7267 19.5752 18.5683 17.4988 18.5683 15.2314C18.5683 15.1012 18.5655 14.9716 18.56 14.8427L18.5544 14.7273C18.5641 14.6237 18.5699 14.5189 18.5717 14.4132L18.5723 14.3445V10.1167C18.5723 9.99282 18.5667 9.87017 18.5558 9.749C18.5641 9.61437 18.5683 9.47864 18.5683 9.34195C18.5683 6.42581 16.6485 3.94518 13.9696 3.02742L13.8882 3.00009L10.1082 3.00031L10.0669 3.00084L10.0142 3.00308C10.0332 3.00176 10.0511 3.00099 10.0689 3.00053L10.1102 3H14.2923Z" fill="#0D53DE"/>
</g>
<path d="M3.85283 9.56326C3.15975 9.68992 2.63232 10.2725 2.61337 10.9781L2.61285 11.0174L2.61283 16.6183C3.34126 17.5438 4.38477 18.221 5.58589 18.4861L5.65762 18.5013L5.68334 18.5022L14.2902 18.5021C16.5258 18.5021 18.3624 16.8503 18.5548 14.7273C18.5645 14.8984 18.5681 15.0578 18.5681 15.2314C18.5681 17.4988 17.7265 19.5752 16.3302 21.182C15.7195 21.3536 15.0762 21.4501 14.4113 21.4606L14.2902 21.4615H2.61084V11.0177C2.61084 10.3043 3.13066 9.70876 3.82249 9.56902L3.85283 9.56326Z" fill="#0D53DE"/>
<path d="M13.8884 3.00006C16.6097 3.89509 18.5684 6.39632 18.5684 9.34192C18.5684 9.48291 18.5648 9.61015 18.5559 9.74897C18.3722 7.64171 16.5696 5.99505 14.3612 5.96027L14.2905 5.95971H10.1083C9.26701 5.95971 8.58496 5.29722 8.58496 4.47999C8.58496 3.67617 9.24483 3.02204 10.0671 3.00081L10.1083 3.00028L13.8884 3.00006Z" fill="#0D53DE"/>
<path d="M4.1362 9.53769C4.96375 9.53769 5.63718 10.1786 5.65904 10.9773L5.65959 11.0174V18.5018C4.42746 18.2485 3.35608 17.5626 2.61279 16.6182L2.61281 11.0174C2.61281 10.2002 3.29485 9.53769 4.1362 9.53769Z" fill="#0D53DE"/>
<path fill-rule="evenodd" clip-rule="evenodd" d="M6.69926 3.99884C6.69926 3.71962 6.46491 3.49326 6.17582 3.49326H2.77344C2.48435 3.49326 2.25 3.71962 2.25 3.99884V7.28517C2.25 7.5644 2.48435 7.79076 2.77344 7.79076L5.01072 7.79238C5.72525 7.7929 6.42273 8.01067 7.01063 8.41679C7.81088 8.96961 8.34007 9.82311 8.48862 10.7684V15.1877C8.48862 15.3947 8.65644 15.5625 8.86346 15.5625H15.368C15.575 15.5625 15.7428 15.3947 15.7428 15.1877V9.29376C15.7428 9.08673 15.575 8.91891 15.368 8.91891H9.96721C9.31528 8.87116 8.68759 8.64288 8.15561 8.25725C7.2408 7.59411 6.69926 6.53269 6.69926 5.40281V3.99884Z" fill="#0D53DE"/>
</svg>
