<svg width="24" height="24" viewBox="0 0 24 24" fill="none" xmlns="http://www.w3.org/2000/svg">
<path d="M4 15.9999C4.55228 15.9999 5 16.4476 5 16.9999V18.9999H19V16.9999C19 16.4476 19.4477 15.9999 20 15.9999C20.5523 15.9999 21 16.4476 21 16.9999V19.9999C21 20.5522 20.5523 20.9999 20 20.9999H4C3.44772 20.9999 3 20.5522 3 19.9999V16.9999C3 16.4476 3.44772 15.9999 4 15.9999Z" />
<path d="M15.8285 9.24266C16.2191 9.63318 16.8522 9.63318 17.2428 9.24266C17.6333 8.85213 17.6333 8.21897 17.2428 7.82844L12.7072 3.29289C12.5197 3.10536 12.2653 3 12.0001 3C11.7349 3 11.4805 3.10536 11.293 3.2929L6.75748 7.82845C6.36696 8.21897 6.36697 8.85214 6.75749 9.24266C7.14802 9.63318 7.78118 9.63318 8.17171 9.24265L10.9995 6.41481L10.9995 14.9999C10.9995 15.5522 11.4472 15.9999 11.9995 15.9999C12.5518 15.9999 12.9995 15.5522 12.9995 14.9999L12.9995 6.41363L15.8285 9.24266Z" />
</svg>
