<svg width="24" height="24" viewBox="0 0 24 24" fill="none" xmlns="http://www.w3.org/2000/svg">
<path d="M17.9737 8.96045H6.52632C5.68335 8.96045 5 9.64379 5 10.4868V18.1183C5 18.9613 5.68335 19.6447 6.52632 19.6447H17.9737C18.8167 19.6447 19.5 18.9613 19.5 18.1183V10.4868C19.5 9.64379 18.8167 8.96045 17.9737 8.96045Z" stroke="black" stroke-opacity="0.72" stroke-width="1.52632"/>
<path d="M12.2499 4C14.3216 4 16.0076 5.65096 16.0642 7.70898L16.0657 7.81579V8.96053H14.5393V7.81579C14.5393 6.55134 13.5143 5.52632 12.2499 5.52632C11.0142 5.52632 10.0071 6.50528 9.96198 7.72996L9.9604 7.81579V8.96053H8.43408V7.81579C8.43408 5.70838 10.1425 4 12.2499 4Z" fill="black" fill-opacity="0.72"/>
<path d="M12.2499 12.7764C11.407 12.7764 10.7236 13.4597 10.7236 14.3027C10.7236 15.1456 11.407 15.829 12.2499 15.829C13.0929 15.829 13.7763 15.1456 13.7763 14.3027C13.7763 13.4597 13.0929 12.7764 12.2499 12.7764Z" stroke="black" stroke-opacity="0.72" stroke-width="1.52632"/>
</svg>
