<svg width="16" height="16" viewBox="0 0 16 16" fill="none" xmlns="http://www.w3.org/2000/svg">
<g clip-path="url(#clip0_3446_39965)">
<path fill-rule="evenodd" clip-rule="evenodd" d="M5.66634 6.00004C5.66634 4.71138 6.71102 3.66671 7.99967 3.66671C9.28833 3.66671 10.333 4.71138 10.333 6.00004C10.333 7.2887 9.28833 8.33337 7.99967 8.33337C6.71102 8.33337 5.66634 7.2887 5.66634 6.00004ZM7.99967 5.00004C7.4474 5.00004 6.99967 5.44776 6.99967 6.00004C6.99967 6.55232 7.4474 7.00004 7.99967 7.00004C8.55195 7.00004 8.99967 6.55232 8.99967 6.00004C8.99967 5.44776 8.55195 5.00004 7.99967 5.00004Z" fill="black" fill-opacity="0.72"/>
<path fill-rule="evenodd" clip-rule="evenodd" d="M7.99935 0.666748C3.94926 0.666748 0.666016 3.94999 0.666016 8.00008C0.666016 10.024 1.48593 11.8564 2.81171 13.1833C2.85054 13.2339 2.8965 13.2788 2.94822 13.3165C4.26335 14.5664 6.04177 15.3334 7.99935 15.3334C9.97563 15.3334 11.7693 14.5517 13.0881 13.2805C13.1131 13.2594 13.1365 13.2365 13.1582 13.212C14.5009 11.8829 15.3327 10.0386 15.3327 8.00008C15.3327 3.94999 12.0494 0.666748 7.99935 0.666748ZM12.9779 11.3499C13.6229 10.3932 13.9993 9.24062 13.9993 8.00008C13.9993 4.68637 11.3131 2.00008 7.99935 2.00008C4.68564 2.00008 1.99935 4.68637 1.99935 8.00008C1.99935 9.241 2.37606 10.3939 3.02136 11.3508C3.64961 9.96426 5.04528 9 6.66649 9H9.33316C10.954 9 12.3495 9.96385 12.9779 11.3499ZM4.04429 12.5121C5.10028 13.4385 6.48423 14.0001 7.99935 14.0001C9.51488 14.0001 10.8992 13.4382 11.9553 12.5114C11.726 11.2722 10.639 10.3333 9.33316 10.3333H6.66649C5.36043 10.3333 4.2733 11.2726 4.04429 12.5121Z" fill="black" fill-opacity="0.72"/>
</g>
<defs>
<clipPath id="clip0_3446_39965">
<rect width="16" height="16" fill="white"/>
</clipPath>
</defs>
</svg>
