<svg width="1em" height="1em" viewBox="0 0 20 20" fill="currentColor" xmlns="http://www.w3.org/2000/svg">
<path fill-rule="evenodd" clip-rule="evenodd" d="M8.03145 2.5188H11.9689C12.8388 2.5188 13.5439 3.22396 13.5439 4.0938V4.8813H16.6939C17.5638 4.8813 18.2689 5.58644 18.2689 6.4563V9.6063C18.2689 10.3402 17.767 10.9568 17.0877 11.1317V15.5125C17.0877 16.5999 16.2063 17.4813 15.1189 17.4813H4.88145C3.79415 17.4813 2.9127 16.5999 2.9127 15.5125V11.1317C2.23339 10.9568 1.73145 10.3402 1.73145 9.6063V6.4563C1.73145 5.58643 2.4366 4.8813 3.30645 4.8813H6.45645V4.0938C6.45645 3.22396 7.16158 2.5188 8.03145 2.5188ZM11.9689 4.8813V4.0938H8.03145V4.8813H11.9689ZM3.30645 6.4563V9.6063H5.66891C5.66891 9.17137 6.02148 8.8187 6.45641 8.8187C6.89133 8.8187 7.24391 9.17128 7.24391 9.6062L12.7564 9.6063C12.7564 9.17137 13.109 8.8187 13.5439 8.8187C13.9788 8.8187 14.3314 9.17128 14.3314 9.6062L16.6939 9.6063V6.4563H3.30645ZM12.7564 11.1813H7.24391V11.9687C7.24391 12.4036 6.89133 12.7562 6.45641 12.7562C6.02148 12.7562 5.66891 12.4036 5.66891 11.9687V11.1813H4.4877V15.5125C4.4877 15.73 4.66398 15.9063 4.88145 15.9063H15.1189C15.3364 15.9063 15.5127 15.73 15.5127 15.5125V11.1813H14.3314V11.9687C14.3314 12.4036 13.9788 12.7562 13.5439 12.7562C13.109 12.7562 12.7564 12.4036 12.7564 11.9687V11.1813Z"/>
</svg>
