<svg width="245" height="179" viewBox="0 0 245 179" fill="none" xmlns="http://www.w3.org/2000/svg">
<g filter="url(#filter0_d_11_294)">
<path d="M160.821 25.8257L117.18 101.42C116.194 103.127 116.779 105.309 118.486 106.294L176.63 139.867C178.231 140.791 180.272 140.34 181.334 138.827L223.471 78.8224C224.676 77.1076 224.15 74.7291 222.335 73.6814L196.363 58.6852L194.446 42.7684C194.311 41.6533 193.66 40.6665 192.687 40.1048L165.695 24.5197C163.988 23.5343 161.806 24.119 160.821 25.8257Z" fill="#1E69FF"/>
<rect width="58.9139" height="69.9004" rx="3.14746" transform="matrix(0.866009 0.500028 -0.499972 0.866042 167.071 29.4155)" fill="#B0CBFF"/>
<g filter="url(#filter1_d_11_294)">
<rect width="58.9139" height="69.9004" rx="3.14746" transform="matrix(0.866009 0.500028 -0.499972 0.866042 172.528 27.9535)" fill="#F2F6FF"/>
</g>
<g filter="url(#filter2_d_11_294)">
<rect width="58.9139" height="69.9004" rx="3.14746" transform="matrix(0.866009 0.500028 -0.499972 0.866042 178.848 26.9907)" fill="white"/>
</g>
<rect width="19.9708" height="2.99573" rx="1.49787" transform="matrix(0.866009 0.500028 -0.499972 0.866042 188.245 45.9643)" fill="#E8EFFF"/>
<rect width="30.9548" height="2.99573" rx="1.49787" transform="matrix(0.866009 0.500028 -0.499972 0.866042 184.251 52.8842)" fill="#E8EFFF"/>
<rect width="30.9548" height="2.99573" rx="1.49787" transform="matrix(0.866009 0.500028 -0.499972 0.866042 180.257 59.8022)" fill="#E8EFFF"/>
<g filter="url(#filter3_d_11_294)">
<path d="M161.418 65.8038L117.958 100.358C115.988 101.924 116.215 104.983 118.395 106.241L177.114 140.146C178.46 140.923 180.154 140.74 181.302 139.693L221.361 103.175C223.146 101.548 222.833 98.6551 220.742 97.4475L165.423 65.5067C164.154 64.7739 162.565 64.8917 161.418 65.8038Z" fill="#1E69FF"/>
</g>
<rect width="123.43" height="113.815" rx="3.5067" transform="matrix(0.948717 -0.316126 0.316083 0.948732 16.0024 46.0193)" fill="#EFF4FF"/>
<rect width="94.5421" height="48.7779" rx="5.26006" transform="matrix(0.948717 -0.316126 0.316083 0.948732 44.5542 70.7819)" fill="#E8F4FF"/>
<path d="M59.1712 85.6174L137.267 59.595C138.034 59.3394 138.827 59.2684 139.473 59.3976C140.119 59.5268 140.564 59.8456 140.71 60.284L143.463 68.5477C143.609 68.9861 143.444 69.508 143.005 69.9987C142.566 70.4894 141.888 70.9087 141.121 71.1643L63.0257 97.1867C62.2586 97.4423 61.4649 97.5133 60.8192 97.3841C60.1735 97.2549 59.7287 96.9361 59.5826 96.4978L56.8294 88.234C56.6834 87.7957 56.8481 87.2737 57.2873 86.783C57.7264 86.2923 58.4041 85.8731 59.1712 85.6174V85.6174Z" fill="white"/>
<path d="M85.6769 79.8487L76.4228 82.9323C75.833 83.1289 75.5029 83.7321 75.6854 84.2798C75.8678 84.8275 76.4938 85.1122 77.0835 84.9157L86.3376 81.8321C86.9274 81.6356 87.2575 81.0323 87.075 80.4846C86.8926 79.9369 86.2666 79.6522 85.6769 79.8487Z" fill="#96C4FF"/>
<path d="M93.5133 82.0102L77.8525 87.2286C77.2627 87.4251 76.9326 88.0283 77.1151 88.576C77.2975 89.1237 77.9235 89.4084 78.5132 89.2119L94.174 83.9935C94.7637 83.797 95.0939 83.1937 94.9114 82.646C94.729 82.0983 94.103 81.8137 93.5133 82.0102Z" fill="#E7F3FE"/>
<path d="M70.5084 91.8778C72.3758 91.2556 73.4213 89.3452 72.8435 87.6109C72.2657 85.8766 70.2834 84.9751 68.416 85.5974C66.5485 86.2196 65.5031 88.13 66.0809 89.8643C66.6587 91.5986 68.641 92.5001 70.5084 91.8778Z" fill="#6EA8FF"/>
<path d="M49.3359 105.177L133.617 77.093C134.445 76.8172 135.297 76.7267 135.986 76.8416C136.674 76.9565 137.143 77.2673 137.289 77.7056L140.042 85.9694C140.188 86.4077 140 86.9377 139.517 87.4427C139.035 87.9477 138.299 88.3864 137.472 88.6623L53.1903 116.746C52.3625 117.022 51.5105 117.112 50.8218 116.997C50.1332 116.882 49.6642 116.572 49.5182 116.133L46.765 107.87C46.619 107.431 46.8078 106.901 47.2899 106.396C47.772 105.891 48.508 105.453 49.3359 105.177V105.177Z" fill="white"/>
<path d="M75.1027 99.1607L65.8485 102.244C65.2588 102.441 64.9287 103.044 65.1111 103.592C65.2936 104.139 65.9196 104.424 66.5093 104.228L75.7634 101.144C76.3531 100.948 76.6833 100.344 76.5008 99.7966C76.3184 99.2489 75.6924 98.9642 75.1027 99.1607Z" fill="#96C4FF"/>
<path d="M82.939 101.322L67.2782 106.54C66.6885 106.737 66.3584 107.34 66.5408 107.888C66.7233 108.436 67.3493 108.72 67.939 108.524L83.5998 103.305C84.1895 103.109 84.5197 102.506 84.3372 101.958C84.1547 101.41 83.5288 101.126 82.939 101.322Z" fill="#E7F3FE"/>
<path d="M55.2994 112.734C57.1669 112.112 58.2123 110.201 57.6345 108.467C57.0567 106.733 55.0744 105.831 53.207 106.453C51.3395 107.076 50.2941 108.986 50.8719 110.72C51.4497 112.455 53.432 113.356 55.2994 112.734Z" fill="#6EA8FF"/>
<path d="M124.111 48.5606L39.83 76.6442C38.1061 77.2186 36.955 78.4243 37.2591 79.3371L40.0123 87.6008C40.3164 88.5136 41.9605 88.7879 43.6845 88.2135L127.966 60.1298C129.69 59.5554 130.841 58.3497 130.537 57.4369L127.783 49.1732C127.479 48.2604 125.835 47.9861 124.111 48.5606Z" fill="white"/>
<path d="M64.921 70.978L55.6669 74.0616C55.0772 74.2581 54.747 74.8614 54.9295 75.4091C55.112 75.9567 55.7379 76.2414 56.3277 76.0449L65.5818 72.9613C66.1715 72.7648 66.5016 72.1615 66.3192 71.6139C66.1367 71.0662 65.5107 70.7815 64.921 70.978Z" fill="#96C4FF"/>
<path d="M72.7574 73.1394L57.0966 78.3578C56.5069 78.5543 56.1767 79.1576 56.3592 79.7053C56.5417 80.2529 57.1676 80.5376 57.7574 80.3411L73.4182 75.1227C74.0079 74.9262 74.338 74.323 74.1556 73.7753C73.9731 73.2276 73.3471 72.9429 72.7574 73.1394Z" fill="#E7F3FE"/>
<path d="M50.4606 82.7677C52.328 82.1454 53.3735 80.235 52.7957 78.5007C52.2178 76.7664 50.2356 75.8649 48.3681 76.4872C46.5007 77.1095 45.4552 79.0198 46.033 80.7541C46.6108 82.4884 48.5931 83.3899 50.4606 82.7677Z" fill="#6EA8FF"/>
<path d="M45.0366 133.174L162.137 94.1546" stroke="black" stroke-opacity="0.03" stroke-width="0.876676"/>
<path d="M119.788 108.267L126.726 129.092" stroke="black" stroke-opacity="0.03" stroke-width="0.876676"/>
<ellipse cx="1.75078" cy="1.62593" rx="1.75078" ry="1.62593" transform="matrix(0.948717 -0.316126 0.316083 0.948732 123.666 22.9975)" fill="#C8CCCF"/>
<ellipse cx="2.62617" cy="2.43889" rx="2.62617" ry="2.43889" transform="matrix(0.948717 -0.316126 0.316083 0.948732 111.785 26.101)" fill="#C8CCCF"/>
<path d="M120.938 28.6529C122.514 28.1277 123.448 26.4904 122.936 24.9544C122.424 23.4184 120.695 22.6682 119.119 23.1934C117.543 23.7187 116.609 25.3559 117.121 26.8919C117.633 28.428 119.362 29.1781 120.938 28.6529Z" fill="#C8CCCF" stroke="white" stroke-width="0.876676"/>
<path d="M61.9253 139.543L76.8742 134.562" stroke="#6EA8FF" stroke-width="2.63003" stroke-linecap="round"/>
<path d="M95.9741 128.198L110.923 123.216" stroke="#6EA8FF" stroke-width="2.63003" stroke-linecap="round"/>
<path d="M137.504 114.359L152.453 109.378" stroke="#6EA8FF" stroke-width="2.63003" stroke-linecap="round"/>
<rect x="49.9497" y="14.0095" width="140.792" height="139.803" rx="4" fill="white"/>
<rect x="71.9167" y="53.9533" width="107.84" height="59.9158" rx="6" fill="#E8F4FF"/>
<path d="M82.3834 76.921H176.279C177.201 76.921 178.086 77.1464 178.738 77.5477C179.39 77.949 179.756 78.4933 179.756 79.0608V89.7601C179.756 90.3276 179.39 90.8719 178.738 91.2732C178.086 91.6745 177.201 91.8999 176.279 91.8999H82.3834C81.4611 91.8999 80.5765 91.6745 79.9243 91.2732C79.2722 90.8719 78.9058 90.3276 78.9058 89.7601V79.0608C78.9058 78.4933 79.2722 77.949 79.9243 77.5477C80.5765 77.1464 81.4611 76.921 82.3834 76.921V76.921Z" fill="white"/>
<path d="M113.141 80.4874H102.015C101.306 80.4874 100.731 81.0622 100.731 81.7713C100.731 82.4804 101.306 83.0552 102.015 83.0552H113.141C113.85 83.0552 114.425 82.4804 114.425 81.7713C114.425 81.0622 113.85 80.4874 113.141 80.4874Z" fill="#96C4FF"/>
<path d="M120.844 86.0511H102.015C101.306 86.0511 100.731 86.6259 100.731 87.335C100.731 88.0441 101.306 88.6189 102.015 88.6189H120.844C121.553 88.6189 122.128 88.0441 122.128 87.335C122.128 86.6259 121.553 86.0511 120.844 86.0511Z" fill="#E7F3FE"/>
<path d="M92.3872 88.6188C94.6325 88.6188 96.4526 86.7985 96.4526 84.5531C96.4526 82.3076 94.6325 80.4874 92.3872 80.4874C90.1419 80.4874 88.3218 82.3076 88.3218 84.5531C88.3218 86.7985 90.1419 88.6188 92.3872 88.6188Z" fill="#6EA8FF"/>
<path d="M64.6862 95.8943H166.019C167.014 95.8943 167.969 96.1197 168.673 96.521C169.377 96.9223 169.772 97.4666 169.772 98.0341V108.733C169.772 109.301 169.377 109.845 168.673 110.246C167.969 110.648 167.014 110.873 166.019 110.873H64.6862C63.6908 110.873 62.7362 110.648 62.0324 110.246C61.3285 109.845 60.9331 109.301 60.9331 108.733V98.0341C60.9331 97.4666 61.3285 96.9223 62.0324 96.521C62.7362 96.1197 63.6908 95.8943 64.6862 95.8943V95.8943Z" fill="white"/>
<path d="M94.7408 98.8901H83.6144C82.9053 98.8901 82.3306 99.465 82.3306 100.174C82.3306 100.883 82.9053 101.458 83.6144 101.458H94.7408C95.4498 101.458 96.0246 100.883 96.0246 100.174C96.0246 99.465 95.4498 98.8901 94.7408 98.8901Z" fill="#96C4FF"/>
<path d="M102.444 104.454H83.6144C82.9053 104.454 82.3306 105.029 82.3306 105.738C82.3306 106.447 82.9053 107.022 83.6144 107.022H102.444C103.153 107.022 103.727 106.447 103.727 105.738C103.727 105.029 103.153 104.454 102.444 104.454Z" fill="#E7F3FE"/>
<path d="M68.4214 107.022C70.6666 107.022 72.4868 105.201 72.4868 102.956C72.4868 100.71 70.6666 98.8901 68.4214 98.8901C66.1761 98.8901 64.356 100.71 64.356 102.956C64.356 105.201 66.1761 107.022 68.4214 107.022Z" fill="#6EA8FF"/>
<path d="M166.019 58.9462H64.6862C62.6134 58.9462 60.9331 59.9043 60.9331 61.0861V71.7853C60.9331 72.9671 62.6134 73.9252 64.6862 73.9252H166.019C168.092 73.9252 169.772 72.9671 169.772 71.7853V61.0861C169.772 59.9043 168.092 58.9462 166.019 58.9462Z" fill="white"/>
<path d="M93.8833 62.0846H82.757C82.0479 62.0846 81.4731 62.6594 81.4731 63.3685C81.4731 64.0776 82.0479 64.6524 82.757 64.6524H93.8833C94.5924 64.6524 95.1672 64.0776 95.1672 63.3685C95.1672 62.6594 94.5924 62.0846 93.8833 62.0846Z" fill="#96C4FF"/>
<path d="M101.586 67.6483H82.757C82.0479 67.6483 81.4731 68.2231 81.4731 68.9322C81.4731 69.6412 82.0479 70.2161 82.757 70.2161H101.586C102.295 70.2161 102.87 69.6412 102.87 68.9322C102.87 68.2231 102.295 67.6483 101.586 67.6483Z" fill="#E7F3FE"/>
<path d="M73.9858 70.216C76.2311 70.216 78.0512 68.3957 78.0512 66.1503C78.0512 63.9049 76.2311 62.0846 73.9858 62.0846C71.7406 62.0846 69.9204 63.9049 69.9204 66.1503C69.9204 68.3957 71.7406 70.216 73.9858 70.216Z" fill="#6EA8FF"/>
<path d="M49.9497 126.851L190.741 126.851" stroke="black" stroke-opacity="0.03"/>
<path d="M139.817 126.851L139.817 153.813" stroke="black" stroke-opacity="0.03"/>
<ellipse cx="176.762" cy="30.9856" rx="1.99704" ry="1.99719" fill="#6EA8FF"/>
<ellipse cx="163.781" cy="30.9856" rx="2.99557" ry="2.99579" fill="#6EA8FF"/>
<path d="M169.772 34.4814C171.703 34.4814 173.268 32.9162 173.268 30.9856C173.268 29.055 171.703 27.4898 169.772 27.4898C167.842 27.4898 166.277 29.055 166.277 30.9856C166.277 32.9162 167.842 34.4814 169.772 34.4814Z" fill="#6EA8FF" stroke="white"/>
<path d="M65.9263 140.831H83.8997" stroke="#6EA8FF" stroke-width="3" stroke-linecap="round"/>
<path d="M106.866 140.831H124.839" stroke="#6EA8FF" stroke-width="3" stroke-linecap="round"/>
<path d="M156.792 140.831H174.765" stroke="#6EA8FF" stroke-width="3" stroke-linecap="round"/>
</g>
<rect x="60" y="25" width="15" height="15" rx="7.5" fill="#6EA8FF"/>
<rect x="30" y="47" width="15" height="15" rx="7.5" fill="#6EA8FF"/>
<defs>
<filter id="filter0_d_11_294" x="0" y="0" width="261.001" height="179" filterUnits="userSpaceOnUse" color-interpolation-filters="sRGB">
<feFlood flood-opacity="0" result="BackgroundImageFix"/>
<feColorMatrix in="SourceAlpha" type="matrix" values="0 0 0 0 0 0 0 0 0 0 0 0 0 0 0 0 0 0 127 0" result="hardAlpha"/>
<feOffset dy="9"/>
<feGaussianBlur stdDeviation="8"/>
<feComposite in2="hardAlpha" operator="out"/>
<feColorMatrix type="matrix" values="0 0 0 0 0.105882 0 0 0 0 0.403922 0 0 0 0 1 0 0 0 0.05 0"/>
<feBlend mode="normal" in2="BackgroundImageFix" result="effect1_dropShadow_11_294"/>
<feBlend mode="normal" in="SourceGraphic" in2="effect1_dropShadow_11_294" result="shape"/>
</filter>
<filter id="filter1_d_11_294" x="134.731" y="29.105" width="91.6653" height="95.6922" filterUnits="userSpaceOnUse" color-interpolation-filters="sRGB">
<feFlood flood-opacity="0" result="BackgroundImageFix"/>
<feColorMatrix in="SourceAlpha" type="matrix" values="0 0 0 0 0 0 0 0 0 0 0 0 0 0 0 0 0 0 127 0" result="hardAlpha"/>
<feOffset dy="4"/>
<feGaussianBlur stdDeviation="2"/>
<feComposite in2="hardAlpha" operator="out"/>
<feColorMatrix type="matrix" values="0 0 0 0 0 0 0 0 0 0 0 0 0 0 0 0 0 0 0.25 0"/>
<feBlend mode="normal" in2="BackgroundImageFix" result="effect1_dropShadow_11_294"/>
<feBlend mode="normal" in="SourceGraphic" in2="effect1_dropShadow_11_294" result="shape"/>
</filter>
<filter id="filter2_d_11_294" x="141.051" y="28.1423" width="91.6653" height="95.6922" filterUnits="userSpaceOnUse" color-interpolation-filters="sRGB">
<feFlood flood-opacity="0" result="BackgroundImageFix"/>
<feColorMatrix in="SourceAlpha" type="matrix" values="0 0 0 0 0 0 0 0 0 0 0 0 0 0 0 0 0 0 127 0" result="hardAlpha"/>
<feOffset dy="4"/>
<feGaussianBlur stdDeviation="2"/>
<feComposite in2="hardAlpha" operator="out"/>
<feColorMatrix type="matrix" values="0 0 0 0 0.105882 0 0 0 0 0.403922 0 0 0 0 1 0 0 0 0.1 0"/>
<feBlend mode="normal" in2="BackgroundImageFix" result="effect1_dropShadow_11_294"/>
<feBlend mode="normal" in="SourceGraphic" in2="effect1_dropShadow_11_294" result="shape"/>
</filter>
<filter id="filter3_d_11_294" x="108.742" y="54.0125" width="121.653" height="91.3326" filterUnits="userSpaceOnUse" color-interpolation-filters="sRGB">
<feFlood flood-opacity="0" result="BackgroundImageFix"/>
<feColorMatrix in="SourceAlpha" type="matrix" values="0 0 0 0 0 0 0 0 0 0 0 0 0 0 0 0 0 0 127 0" result="hardAlpha"/>
<feOffset dy="-3.14746"/>
<feGaussianBlur stdDeviation="3.93433"/>
<feComposite in2="hardAlpha" operator="out"/>
<feColorMatrix type="matrix" values="0 0 0 0 0 0 0 0 0 0.407843 0 0 0 0 1 0 0 0 0.1 0"/>
<feBlend mode="normal" in2="BackgroundImageFix" result="effect1_dropShadow_11_294"/>
<feBlend mode="normal" in="SourceGraphic" in2="effect1_dropShadow_11_294" result="shape"/>
</filter>
</defs>
</svg>
