<svg width="28" height="28" viewBox="0 0 28 28" fill="none" xmlns="http://www.w3.org/2000/svg">
<g clip-path="url(#clip0_1471_6626)">
<mask id="mask0_1471_6626" style="mask-type:luminance" maskUnits="userSpaceOnUse" x="3" y="3" width="23" height="23">
<path d="M16.6737 3.5C21.3474 3.5 25.145 7.14334 25.2205 11.6656L25.2216 11.8029V16.7353C25.2216 21.2749 21.4708 24.9637 16.8151 25.037L16.6737 25.0381H3.04785V12.8537C3.04785 11.9002 3.84357 11.1273 4.82514 11.1273C5.79062 11.1273 6.57629 11.8751 6.60179 12.8069L6.60243 12.8537V21.5854H16.6737C19.4039 21.5854 21.6223 19.4571 21.6664 16.8155L21.667 16.7353V11.8029C21.667 9.15096 19.4759 6.99615 16.7563 6.95332L16.6737 6.95267H11.7946C10.813 6.95267 10.0173 6.17977 10.0173 5.22634C10.0173 4.28854 10.7872 3.52539 11.7465 3.50062L11.7946 3.5H16.6737Z" fill="white"/>
</mask>
<g mask="url(#mask0_1471_6626)">
<path d="M16.6738 3.5C21.3474 3.5 25.145 7.14334 25.2205 11.6656L25.2217 11.8029V16.7353C25.2217 20.6953 22.3675 24.0078 18.5483 24.8378C18.718 24.8007 18.8858 24.7589 19.0515 24.7123C20.6805 22.8377 21.6624 20.4152 21.6624 17.77C21.6624 17.6181 21.6592 17.4669 21.6528 17.3165L21.6462 17.1818C21.6576 17.0609 21.6644 16.9388 21.6664 16.8155L21.6671 16.7353V11.8029C21.6671 11.6583 21.6606 11.5152 21.6478 11.3738C21.6575 11.2168 21.6624 11.0584 21.6624 10.8989C21.6624 7.49677 19.4227 4.60272 16.2973 3.53199L16.2024 3.50011L11.7923 3.50036L11.7442 3.50098L11.6826 3.50359C11.7049 3.50205 11.7257 3.50116 11.7465 3.50062L11.7946 3.5H16.6738Z" fill="#0D53DE"/>
</g>
<path d="M4.4944 11.1572C3.6858 11.305 3.07048 11.9847 3.04837 12.8079L3.04775 12.8537L3.04773 19.3881C3.89756 20.4678 5.115 21.2579 6.5163 21.5672L6.59998 21.585L6.62999 21.586L16.6713 21.5859C19.2795 21.5859 21.4223 19.6588 21.6467 17.1819C21.658 17.3816 21.6623 17.5675 21.6623 17.7701C21.6623 20.4153 20.6804 22.8378 19.0513 24.7124C18.3389 24.9126 17.5883 25.0252 16.8126 25.0374L16.6713 25.0385H3.04541V12.8541C3.04541 12.0217 3.65187 11.327 4.45901 11.1639L4.4944 11.1572Z" fill="#0D53DE"/>
<path d="M16.2025 3.5C19.3774 4.5442 21.6625 7.4623 21.6625 10.8988C21.6625 11.0633 21.6583 11.2118 21.6479 11.3737C21.4336 8.91526 19.3306 6.99415 16.7541 6.95358L16.6715 6.95293H11.7924C10.8109 6.95293 10.0151 6.18002 10.0151 5.22659C10.0151 4.28879 10.785 3.52564 11.7443 3.50087L11.7924 3.50025L16.2025 3.5Z" fill="#0D53DE"/>
<path d="M4.82516 11.1272C5.79063 11.1272 6.5763 11.875 6.6018 12.8068L6.60244 12.8535V21.5853C5.16496 21.2899 3.91502 20.4896 3.04785 19.3879L3.04787 12.8535C3.04787 11.9001 3.84359 11.1272 4.82516 11.1272Z" fill="#0D53DE"/>
<path fill-rule="evenodd" clip-rule="evenodd" d="M7.81581 4.66529C7.81581 4.33953 7.5424 4.07544 7.20512 4.07544H3.23568C2.89841 4.07544 2.625 4.33953 2.625 4.66529V8.49934C2.625 8.8251 2.89841 9.08919 3.23568 9.08919L5.84584 9.09109C6.67946 9.0917 7.49319 9.34576 8.17906 9.81956C9.1127 10.4645 9.73009 11.4603 9.90339 12.5631V17.7189C9.90339 17.9604 10.0992 18.1562 10.3407 18.1562H17.9293C18.1709 18.1562 18.3667 17.9604 18.3667 17.7189V10.8427C18.3667 10.6011 18.1709 10.4053 17.9293 10.4053H11.6279C10.8675 10.3495 10.1354 10.0832 9.51488 9.63343C8.44761 8.85977 7.81581 7.62144 7.81581 6.30326V4.66529Z" fill="#0D53DE"/>
</g>
<defs>
<clipPath id="clip0_1471_6626">
<rect width="28" height="28" fill="white"/>
</clipPath>
</defs>
</svg>
