<svg width="16" height="16" viewBox="0 0 16 16" fill="none" xmlns="http://www.w3.org/2000/svg">
<path fill-rule="evenodd" clip-rule="evenodd" d="M2 6.2533C2 5.49324 2.41891 4.79505 3.08955 4.43737L7.20565 2.24212C7.81096 1.91929 8.53733 1.91929 9.14264 2.24212L13.2587 4.43737C13.9294 4.79505 14.3483 5.49324 14.3483 6.2533V10.7467C14.3483 11.5068 13.9294 12.2049 13.2587 12.5626L9.14264 14.7579C8.53733 15.0807 7.81096 15.0807 7.20565 14.7579L3.08955 12.5626C2.41891 12.2049 2 11.5068 2 10.7467V6.2533Z" fill="url(#paint0_linear_3621_41349)"/>
<path d="M9.95773 2.67665L4.92331 5.42786C4.26294 5.78874 3.85219 6.48129 3.85219 7.23383V9.16166C3.85219 9.88522 4.253 10.5492 4.89324 10.8863C5.54222 11.228 6.32185 10.7574 6.32185 10.024V8.55826C6.32185 7.7984 6.74054 7.10036 7.41091 6.7426L12.4947 4.02949L13.2487 4.43186L8.21565 7.18424C7.55557 7.54522 7.14507 8.23759 7.14507 8.98992V10.3439C7.14507 11.5692 5.84105 12.354 4.7583 11.7804C3.69434 11.2168 3.02897 10.1113 3.02897 8.90729V6.80213C3.02897 6.04206 3.44788 5.34388 4.11853 4.9862L9.20311 2.27442L9.95773 2.67665Z" fill="white"/>
<defs>
<linearGradient id="paint0_linear_3621_41349" x1="3.63771" y1="3.2424" x2="12.9557" y2="13.8593" gradientUnits="userSpaceOnUse">
<stop stop-color="#3A7CFF"/>
<stop offset="0.510353" stop-color="#0D3CDE"/>
<stop offset="1" stop-color="#5E36FD"/>
</linearGradient>
</defs>
</svg>
