<svg width="48" height="48" viewBox="0 0 48 48" fill="none" xmlns="http://www.w3.org/2000/svg">
<path fill-rule="evenodd" clip-rule="evenodd" d="M34.976 31.2015L27.2165 38.961C26.7825 39.3951 26.4615 39.9289 26.2818 40.5158L25.3763 43.4724C25.2925 43.7461 25.5335 44.0091 25.8134 43.9494L28.9058 43.2896C29.6144 43.1385 30.2642 42.7854 30.7765 42.273L38.412 34.6375L34.976 31.2015ZM39.9695 33.08L41.1821 31.8675C41.9149 31.1346 41.9149 29.9465 41.1821 29.2136L40.3999 28.4315C39.6671 27.6986 38.4789 27.6986 37.7461 28.4315L36.5335 29.644L39.9695 33.08Z" fill="#3477EB"/>
<path fill-rule="evenodd" clip-rule="evenodd" d="M8.26758 4.03906H25.8432V9.53628C25.8432 12.6454 28.3637 15.1659 31.4728 15.1659H36.2921V26.7255L20.9749 42.0427H8.26758C7.16301 42.0427 6.26758 41.1473 6.26758 40.0427V6.03906C6.26758 4.93449 7.16301 4.03906 8.26758 4.03906ZM36.291 11.4128C36.2251 7.601 33.3177 4.48172 29.5963 4.08229V9.53628C29.5963 10.5727 30.4364 11.4128 31.4728 11.4128H36.291Z" fill="#3477EB"/>
<rect x="12.1133" y="18.209" width="18.3329" height="3" rx="1.5" fill="white"/>
<rect x="12.1133" y="24.7773" width="13.2461" height="3" rx="1.5" fill="white"/>
</svg>
