<svg t="1706599523793" class="icon" viewBox="0 0 1024 1024" version="1.1" xmlns="http://www.w3.org/2000/svg" width="1em" height="1em"><path d="M512 85.333333c235.648 0 426.666667 191.018667 426.666667 426.666667s-191.018667 426.666667-426.666667 426.666667S85.333333 747.648 85.333333 512 276.352 85.333333 512 85.333333z m0 64a362.666667 362.666667 0 1 0 0 725.333334 362.666667 362.666667 0 0 0 0-725.333334z m0 202.666667a32 32 0 0 1 32 32v256a32 32 0 1 1-64 0V384a32 32 0 0 1 32-32z m-128 42.666667a32 32 0 0 1 32 32v170.666666a32 32 0 1 1-64 0v-170.666666A32 32 0 0 1 384 394.666667z m256 0a32 32 0 0 1 32 32v170.666666a32 32 0 1 1-64 0v-170.666666a32 32 0 0 1 32-32z m-384 42.666666a32 32 0 0 1 32 32v85.333334a32 32 0 1 1-64 0v-85.333334a32 32 0 0 1 32-32z m512 0a32 32 0 0 1 32 32v85.333334a32 32 0 1 1-64 0v-85.333334a32 32 0 0 1 32-32z" p-id="7766" fill="currentColor"></path></svg>
