<svg width="24" height="24" viewBox="0 0 24 24" fill="none" xmlns="http://www.w3.org/2000/svg">
<path d="M7.95179 2.63676C8.12615 2.24923 8.51158 2 8.93653 2H14.6303C15.0522 2 15.4356 2.24579 15.6116 2.62928L17.0989 5.86876C17.1154 5.90458 17.1297 5.94084 17.1419 5.97739L21.5167 5.97739C22.1131 5.97739 22.5965 6.46084 22.5965 7.05722C22.5965 7.65359 22.1131 8.13704 21.5167 8.13704H19.3018C19.3377 8.2445 19.3571 8.35946 19.3571 8.47896V20.3571C19.3571 20.9534 18.8736 21.4369 18.2772 21.4369H5.31931C4.72294 21.4369 4.23948 20.9534 4.23948 20.3571V8.47896C4.23948 8.35946 4.25889 8.24449 4.29474 8.13704H2.07983C1.48346 8.13704 1 7.65359 1 7.05722C1 6.46084 1.48346 5.97739 2.07983 5.97739L6.45461 5.97739C6.46601 5.94339 6.4792 5.90963 6.49422 5.87624L7.95179 2.63676ZM8.8169 5.97739L14.7724 5.97739L13.9379 4.15965H9.63477L8.8169 5.97739ZM6.34388 8.13704C6.37972 8.24449 6.39914 8.35946 6.39914 8.47896V19.2772H17.1974V8.47896C17.1974 8.35946 17.2168 8.24449 17.2527 8.13704L6.34388 8.13704ZM9.63862 10.3376C10.235 10.3376 10.7184 10.821 10.7184 11.4174V16.0378C10.7184 16.6341 10.235 17.1176 9.63862 17.1176C9.04225 17.1176 8.55879 16.6341 8.55879 16.0378V11.4174C8.55879 10.821 9.04225 10.3376 9.63862 10.3376ZM13.9579 10.3376C14.5543 10.3376 15.0378 10.821 15.0378 11.4174V16.0378C15.0378 16.6341 14.5543 17.1176 13.9579 17.1176C13.3616 17.1176 12.8781 16.6341 12.8781 16.0378V11.4174C12.8781 10.821 13.3616 10.3376 13.9579 10.3376Z" />
</svg>
