<svg width="120" height="120" viewBox="0 0 120 120" fill="none" xmlns="http://www.w3.org/2000/svg">
<path d="M9 64.4017L30.4764 39.0413H91.8831L110.019 64.4017H9Z" fill="#D6DAE1"/>
<path d="M9 79.6179L30.4764 54.6802H91.8831L110.019 79.6179H9Z" fill="#EFF2F4"/>
<path d="M9 64.4016H110.019V102H9V64.4016Z" fill="#D6DAE1"/>
<path d="M42 60.2672C42 60.2672 48.1829 30.2987 71.5527 31.586C86.7471 32.3794 78.6175 45.0242 70.9113 39.4374C60.5033 31.9307 69.9614 17.3663 86.3806 18.0214" stroke="#231815" stroke-width="2" stroke-miterlimit="10"/>
<path d="M106.459 18.7582L85.0008 27.3687L90.5515 18.328L85.4974 9.0007L106.459 18.7582Z" fill="#0D53DE"/>
<line x1="20.1768" y1="27.8232" x2="26.5408" y2="34.1871" stroke="#231815" stroke-width="2"/>
<line x1="14.7788" y1="35.5541" x2="23.4722" y2="37.8835" stroke="#231815" stroke-width="2"/>
<line x1="29.8834" y1="31.4722" x2="27.5541" y2="22.7789" stroke="#231815" stroke-width="2"/>
<line x1="16" y1="78" x2="29.7838" y2="78" stroke="#231815" stroke-width="2"/>
<line x1="16" y1="85.1377" x2="41.1351" y2="85.1377" stroke="black" stroke-width="2"/>
</svg>
