<svg t="1706599740783" class="icon" viewBox="0 0 1024 1024" version="1.1" xmlns="http://www.w3.org/2000/svg" p-id="13286" width="1em" height="1em"><path d="M512 64c247.424 0 448 200.576 448 448s-200.576 448-448 448S64 759.424 64 512 264.576 64 512 64z m383.584 429.76l-232.96 232.864a32 32 0 0 1-38.496 5.152l-202.784-115.872-174.144 174.208A382.72 382.72 0 0 0 512 896c212.064 0 384-171.936 384-384 0-6.112-0.128-12.192-0.416-18.24zM512 128C299.936 128 128 299.936 128 512c0 86.336 28.48 165.984 76.576 230.144l188.8-188.8a32 32 0 0 1 38.496-5.12l202.752 115.84 249.024-248.992C840.704 249.92 690.592 128 512 128z m96 160a64 64 0 1 1 0 128 64 64 0 0 1 0-128z" p-id="13287" fill="currentColor"></path></svg>
