<svg width="24" height="24" viewBox="0 0 24 24" fill="none" xmlns="http://www.w3.org/2000/svg">
<path d="M11.9435 14.7546C11.8997 14.8079 11.8446 14.8508 11.7822 14.8802C11.7198 14.9097 11.6517 14.9249 11.5827 14.9249C11.5137 14.9249 11.4455 14.9097 11.3831 14.8802C11.3208 14.8508 11.2657 14.8079 11.2218 14.7546L7.10659 9.76464C7.05028 9.69625 7.01456 9.61327 7.0036 9.52536C6.99263 9.43745 7.00687 9.34824 7.04465 9.26811C7.08243 9.18798 7.1422 9.12024 7.217 9.07277C7.2918 9.02531 7.37854 9.00007 7.46713 9L15.6982 9C15.7868 9.00007 15.8735 9.02531 15.9483 9.07277C16.0231 9.12024 16.0829 9.18798 16.1207 9.26811C16.1585 9.34824 16.1727 9.43745 16.1617 9.52536C16.1508 9.61327 16.115 9.69625 16.0587 9.76464L11.9429 14.7546H11.9435Z" fill="#B4B6BC"/>
</svg>
