<svg t="1706599591071" class="icon" viewBox="0 0 1024 1024" version="1.1" xmlns="http://www.w3.org/2000/svg" p-id="11444" width="1em" height="1em"><path d="M416 704c-6.4 0-9.6 0-16-3.2C390.4 694.4 384 684.8 384 672L384 352c0-12.8 6.4-22.4 16-28.8 9.6-6.4 22.4-6.4 32 0l256 166.4c9.6 6.4 16 16 16 28.8 0 9.6-6.4 22.4-16 25.6l-256 156.8C428.8 704 422.4 704 416 704zM448 409.6l0 204.8 163.2-99.2L448 409.6z" p-id="11445" fill="currentColor"></path><path d="M512 960C265.6 960 64 758.4 64 512S265.6 64 512 64s448 201.6 448 448S758.4 960 512 960zM512 128C300.8 128 128 300.8 128 512c0 211.2 172.8 384 384 384 211.2 0 384-172.8 384-384C896 300.8 723.2 128 512 128z" p-id="11446" fill="currentColor"></path></svg>
